<svg width="200" height="200" viewBox="0 0 200 200" fill="none" xmlns="http://www.w3.org/2000/svg">
  <path d="M100 20C80 20 60 40 60 60C60 80 80 100 100 100C120 100 140 80 140 60C140 40 120 20 100 20Z" fill="#90EE90" fill-opacity="0.1"/>
  <path d="M70 70L50 90M130 70L150 90M100 100V150" stroke="#90EE90" stroke-width="2" stroke-opacity="0.2"/>
  <path d="M80 40C70 45 65 55 70 65M120 40C130 45 135 55 130 65" stroke="#90EE90" stroke-width="2" stroke-opacity="0.2"/>
  <path d="M90 80C85 85 85 90 90 95M110 80C115 85 115 90 110 95" stroke="#90EE90" stroke-width="2" stroke-opacity="0.2"/>
</svg>
